<?xml version="1.0" encoding="UTF-8" standalone="no"?>
<!DOCTYPE svg PUBLIC "-//W3C//DTD SVG 1.1//EN" "http://www.w3.org/Graphics/SVG/1.1/DTD/svg11.dtd">
<svg width="100%" height="100%" viewBox="0 0 424 93" version="1.1" xmlns="http://www.w3.org/2000/svg" xmlns:xlink="http://www.w3.org/1999/xlink" xml:space="preserve" xmlns:serif="http://www.serif.com/" style="fill-rule:evenodd;clip-rule:evenodd;stroke-linejoin:round;stroke-miterlimit:2;">
    <g transform="matrix(1,0,0,1,0,-4.99675)">
        <path d="M33,5L0,5L43.109,89.842C45.496,94.54 50.32,97.5 55.59,97.5L79.5,97.5L33,5Z" style="fill:url(#_Linear1);fill-rule:nonzero;"/>
        <path d="M98,5L65.589,69.83L79.5,97.5C80.897,97.5 82.728,97.963 84.017,95.736C108.475,53.492 108,54.5 108,54.5C111.086,60.055 116.941,63.5 123.296,63.5L152.75,63.5C155.097,63.5 157,65.403 157,67.75C157,70.097 155.097,72 152.75,72L113.5,72C108.529,72 104.5,76.029 104.5,81L104.5,87.5C104.5,92.471 108.529,96.5 113.5,96.5L180.5,96.5L211.583,33.369L201.505,7.744C200.293,4.62 196.461,3.804 194.32,7.178L172,45.5C168.192,41.057 162.632,38.5 156.78,38.5L128.25,38.5C125.903,38.5 124,36.597 124,34.25C124,31.903 125.903,30 128.25,30L163,30C167.971,30 172,25.971 172,21L172,14C172,9.029 167.971,5 163,5L98,5Z" style="fill:url(#_Linear2);fill-rule:nonzero;"/>
        <path d="M242,97L198,5L220.827,5C226.457,5 231.614,8.153 234.179,13.166L262.5,68.5L262.5,14C262.5,9.029 266.529,5 271.5,5L329.5,5C334.471,5 338.5,9.029 338.5,14L338.5,20.5C338.5,25.471 334.471,29.5 329.5,29.5L287,29.5L287,37.5L329.5,37.5C334.471,37.5 338.5,41.529 338.5,46.5L338.5,54.5C338.5,59.471 334.471,63.5 329.5,63.5L287,63.5L287,87C287,92.523 282.523,97 277,97L242,97Z" style="fill:url(#_Linear3);fill-rule:nonzero;"/>
        <path d="M346,87.5L346,14C346,9.029 350.029,5 355,5L414.5,5C419.471,5 423.5,9.029 423.5,14L423.5,20C423.5,24.971 419.471,29 414.5,29L371.5,29L371.5,38L412.5,38C418.575,38 423.5,42.925 423.5,49L423.5,52.5C423.5,58.575 418.575,63.5 412.5,63.5L371.5,63.5L371.5,72L414.5,72C419.471,72 423.5,76.029 423.5,81L423.5,87.5C423.5,92.471 419.471,96.5 414.5,96.5L355,96.5C350.029,96.5 346,92.471 346,87.5Z" style="fill:url(#_Linear4);fill-rule:nonzero;"/>
    </g>
    <defs>
        <linearGradient id="_Linear1" x1="0" y1="0" x2="1" y2="0" gradientUnits="userSpaceOnUse" gradientTransform="matrix(68,87.5,-87.5,68,-8.9369e-07,8.5)"><stop offset="0" style="stop-color:rgb(22,142,179);stop-opacity:1"/><stop offset="0.61" style="stop-color:rgb(6,68,91);stop-opacity:1"/><stop offset="1" style="stop-color:rgb(6,68,91);stop-opacity:1"/></linearGradient>
        <linearGradient id="_Linear2" x1="0" y1="0" x2="1" y2="0" gradientUnits="userSpaceOnUse" gradientTransform="matrix(-140,1.71451e-14,-1.71451e-14,-140,206.5,51)"><stop offset="0" style="stop-color:rgb(96,192,214);stop-opacity:1"/><stop offset="0.33" style="stop-color:rgb(5,145,134);stop-opacity:1"/><stop offset="0.7" style="stop-color:rgb(15,150,143);stop-opacity:1"/><stop offset="1" style="stop-color:rgb(92,194,216);stop-opacity:1"/></linearGradient>
        <linearGradient id="_Linear3" x1="0" y1="0" x2="1" y2="0" gradientUnits="userSpaceOnUse" gradientTransform="matrix(132,0.25,-0.25,132,207,35.75)"><stop offset="0" style="stop-color:rgb(6,67,104);stop-opacity:1"/><stop offset="1" style="stop-color:rgb(11,156,219);stop-opacity:1"/></linearGradient>
        <linearGradient id="_Linear4" x1="0" y1="0" x2="1" y2="0" gradientUnits="userSpaceOnUse" gradientTransform="matrix(-78,0.5,-0.5,-78,424,46)"><stop offset="0" style="stop-color:rgb(7,65,91);stop-opacity:1"/><stop offset="0.41" style="stop-color:rgb(7,65,91);stop-opacity:1"/><stop offset="1" style="stop-color:rgb(8,151,207);stop-opacity:1"/></linearGradient>
    </defs>
</svg>
